<svg xmlns="http://www.w3.org/2000/svg" viewBox="0 0 229 267" height="267" width="229">
    <defs id="defs6">
        <clipPath id="clipPath18" clipPathUnits="userSpaceOnUse">
            <path id="path16" d="M 0,283.465 H 283.465 V 0 H 0 Z"/>
        </clipPath>
        <style>
            path.spider_path {
            fill: #A5ACBF;
            }
        </style>
    </defs>
    <g transform="matrix(1.3333333,0,0,-1.3333333,0,377.95333), translate(-55, 45)" id="g10">
        <g id="g12">
            <g clip-path="url(#clipPath18)" id="g14">
                <g transform="translate(130.0806,130.2677)" id="g20">
                    <path id="path22" class="spider_path"
                          d="m 0,0 v 4.304 h -7.006 c 0,0 -8.859,-2.76 -19.942,-6.884 -11.498,-4.279 -21.918,-9.675 -21.918,-9.675 0,0 5.305,-9.366 9.701,-28.093 5.465,-23.281 7.905,-51.673 7.905,-51.673 0,0 3.55,24.157 -1.616,52.79 -2.887,15.998 -7.511,24.467 -7.511,24.467 0,0 10.69,4.71 19.74,8.024 C -9.252,-2.567 0,0 0,0"/>
                </g>
                <g transform="translate(131.6197,237.5944)" id="g24">
                    <path id="path26" class="spider_path"
                          d="m 0,0 c 0,0 -9.457,-20.799 -18.44,-35.869 -9.001,-15.101 -20.288,-27.713 -20.288,-27.713 0,0 9.522,-7.441 18.145,-12.278 8.624,-4.838 13.834,-7.442 13.834,-7.442 h 5.21 v 4.093 c 0,0 -8.726,4.64 -15.732,8.547 -7.007,3.907 -13.242,8.507 -13.242,8.507 0,0 7.904,8.987 16.219,24.062 C -1.65,-15.168 0,0 0,0"/>
                </g>
                <g transform="translate(110.3638,147.8356)" id="g28">
                    <path id="path30" class="spider_path"
                          d="m 0,0 c 0,0 -8.955,4.932 -18.556,11.395 -10.094,6.795 -17.356,12.518 -17.356,12.518 0,0 9.367,10.009 18.8,24.683 13.36,20.783 15.091,34.325 15.091,34.325 0,0 -11.478,-20.314 -20.726,-33.569 -9.911,-14.206 -21.314,-26.291 -21.314,-26.291 0,0 8.947,-7.775 19.673,-14.79 10.24,-6.698 17.516,-10.745 17.516,-10.745 0,0 -8.219,-1.674 -22.502,-5.581 -14.282,-3.907 -23.579,-8.233 -23.579,-8.233 0,0 6.395,-17.106 8.084,-36.558 1.945,-22.396 2.078,-43.115 2.078,-43.115 0,0 3.391,9.47 3.829,36.699 0.416,25.824 -4.964,39.626 -4.964,39.626 0,0 8.635,3.768 21.651,7.279 C -9.34,-8.869 0,-7.382 0,-7.382 Z"/>
                </g>
                <g transform="translate(149.105,163.4987)" id="g32">
                    <path id="path34" class="spider_path"
                          d="m 0,0 c 0,-0.73 -0.592,-1.323 -1.322,-1.323 h -14.145 c -0.731,0 -1.323,0.593 -1.323,1.323 v 8.783 c 0,0.731 0.592,1.322 1.323,1.322 H -1.322 C -0.592,10.105 0,9.514 0,8.783 Z m 0.291,11.802 h -17.372 c -1.216,0 -2.201,-0.986 -2.201,-2.201 V -0.817 c 0,-1.217 0.985,-2.202 2.201,-2.202 H 0.291 c 1.216,0 2.201,0.985 2.201,2.202 V 9.601 c 0,1.215 -0.985,2.201 -2.201,2.201"/>
                </g>
                <g transform="translate(123.8106,139.1545)" id="g36">
                    <path id="path38" class="spider_path"
                          d="M 0,0 -6.896,8.286 V 0 h -2.581 v 10.461 h 3.924 L 0.571,2.847 v 7.614 h 2.58 L 3.151,0 Z M 11.624,0 V 10.461 H 22.502 V 8.392 H 14.205 V 6.143 h 4.989 V 4.444 H 14.205 V 2.07 h 8.39 V 0 Z m 23.142,0 v 8.252 h -4.458 v 2.209 H 41.93 V 8.252 H 37.347 V 0 Z M 15.71,-22.883 v 8.251 h -4.459 v 2.209 h 11.623 v -2.209 h -4.582 v -8.251 z m -1.365,-17.494 h 4.678 c 0.881,0 1.458,0.085 1.458,1.226 0,0.995 -0.431,1.163 -1.396,1.163 h -4.74 z m -2.581,-2.069 v 10.46 h 2.581 v -3.933 h 5.452 c 1.972,0 3.265,-0.231 3.265,-3.326 0,-3.053 -1.214,-3.201 -3.357,-3.201 z"/>
                </g>
                <g transform="translate(139.6719,164.3337)" id="g40">
                    <path id="path42" class="spider_path"
                          d="m 0,0 c -1.826,0 -3.118,0.189 -3.118,2.632 v 1.859 c 0,2.193 1.132,2.622 3.087,2.622 h 2.582 c 1.59,0 2.632,-0.157 2.632,-2.26 V 4.659 H 3.38 V 4.853 C 3.307,5.62 2.686,5.62 2.138,5.62 h -2.376 c -0.915,0 -1.076,-0.464 -1.076,-1.438 V 3.066 c 0,-1.109 0.153,-1.573 1.107,-1.573 h 2.345 c 0.779,0 1.253,0.066 1.253,0.984 V 2.609 H 5.194 V 2.477 c 0,-0.745 0,-1.449 -0.631,-1.97 C 3.949,0 3.251,0 2.445,0 Z"/>
                </g>
                <g transform="translate(151.1587,130.2677)" id="g44">
                    <path id="path46" class="spider_path"
                          d="m 0,0 v 4.304 h 7.006 c 0,0 8.859,-2.76 19.942,-6.884 11.498,-4.279 21.918,-9.675 21.918,-9.675 0,0 -5.305,-9.366 -9.702,-28.093 -5.465,-23.281 -7.904,-51.673 -7.904,-51.673 0,0 -3.55,24.157 1.617,52.79 2.886,15.998 7.51,24.467 7.51,24.467 0,0 -10.691,4.71 -19.74,8.024 C 9.253,-2.567 0,0 0,0"/>
                </g>
                <g transform="translate(149.6197,237.5944)" id="g48">
                    <path id="path50" class="spider_path"
                          d="m 0,0 c 0,0 9.457,-20.799 18.439,-35.869 9.001,-15.101 20.289,-27.713 20.289,-27.713 0,0 -9.522,-7.441 -18.146,-12.278 -8.623,-4.838 -13.833,-7.442 -13.833,-7.442 h -5.21 v 4.093 c 0,0 8.726,4.64 15.732,8.547 7.006,3.907 13.242,8.507 13.242,8.507 0,0 -7.904,8.987 -16.219,24.062 C 1.649,-15.168 0,0 0,0"/>
                </g>
                <g transform="translate(170.8755,147.8356)" id="g52">
                    <path id="path54" class="spider_path"
                          d="m 0,0 c 0,0 8.954,4.932 18.556,11.395 10.094,6.795 17.356,12.518 17.356,12.518 0,0 -9.367,10.009 -18.8,24.683 C 3.752,69.379 2.021,82.921 2.021,82.921 c 0,0 11.478,-20.314 20.726,-33.569 9.911,-14.206 21.314,-26.291 21.314,-26.291 0,0 -8.947,-7.775 -19.673,-14.79 C 14.147,1.573 6.872,-2.474 6.872,-2.474 c 0,0 8.219,-1.674 22.502,-5.581 14.282,-3.907 23.579,-8.233 23.579,-8.233 0,0 -6.395,-17.106 -8.084,-36.558 -1.944,-22.396 -2.078,-43.115 -2.078,-43.115 0,0 -3.392,9.47 -3.829,36.699 -0.416,25.824 4.964,39.626 4.964,39.626 0,0 -8.635,3.768 -21.652,7.279 C 9.34,-8.869 0,-7.382 0,-7.382 Z"/>
                </g>
            </g>
        </g>
    </g>
</svg>