<svg width="21" height="21" viewBox="0 0 21 21" fill="none" xmlns="http://www.w3.org/2000/svg">
    <path d="M19.1543 8.6543C18.3522 8.6543 17.6684 9.16875 17.4143 9.88477H16.0027C15.8843 8.81836 15.4619 7.84248 14.8243 7.04588L15.7953 6.0748C16.4817 6.4018 17.3283 6.28196 17.8956 5.71463C18.6152 4.99493 18.6152 3.82407 17.8956 3.10437C17.1761 2.38483 16.0051 2.38467 15.2854 3.10437C14.7182 3.67154 14.5985 4.51877 14.9252 5.20466L13.9541 6.17574C13.1575 5.53807 12.1816 5.11574 11.1152 4.99734V3.58566C11.8314 3.33156 12.3457 2.64775 12.3457 1.8457C12.3457 0.828003 11.5177 0 10.5 0C9.4823 0 8.6543 0.828003 8.6543 1.8457C8.6543 2.64775 9.16859 3.33156 9.88477 3.58566V4.99734C8.81836 5.11574 7.84248 5.53807 7.04588 6.17574L6.0748 5.20482C6.40148 4.51877 6.28164 3.67154 5.71463 3.10437C4.99493 2.38483 3.82407 2.38483 3.10437 3.10437C2.38483 3.82407 2.38483 4.99493 3.10437 5.71463C3.46422 6.07448 3.93686 6.2544 4.4095 6.2544C4.68171 6.2544 4.95392 6.19432 5.20466 6.0748L6.17574 7.04588C5.53807 7.84248 5.11574 8.81836 4.99734 9.88477H3.58566C3.33156 9.16875 2.64775 8.6543 1.8457 8.6543C0.828003 8.6543 0 9.4823 0 10.5C0 11.5177 0.828003 12.3457 1.8457 12.3457C2.64775 12.3457 3.33156 11.8312 3.58566 11.1152H4.99734C5.11574 12.1816 5.53807 13.1575 6.17574 13.9541L5.20466 14.9252C4.51877 14.5984 3.67154 14.7182 3.10437 15.2854C2.38483 16.0051 2.38483 17.1759 3.10437 17.8956C3.82391 18.6152 4.99493 18.6152 5.71463 17.8956C6.2818 17.3285 6.40148 16.4811 6.0748 15.7952L7.04588 14.8243C7.86475 15.4797 8.84544 15.8873 9.88477 16.0027V17.4143C9.16859 17.6684 8.6543 18.3522 8.6543 19.1543C8.6543 20.172 9.4823 21 10.5 21C11.5177 21 12.3457 20.172 12.3457 19.1543C12.3457 18.3522 11.8314 17.6684 11.1152 17.4143V16.0027C12.1558 15.8871 13.1364 15.4789 13.9541 14.8243L14.9252 15.7952C14.5985 16.4812 14.7184 17.3285 15.2854 17.8956C16.0051 18.6152 17.1759 18.6153 17.8956 17.8956C18.6152 17.1759 18.6152 16.0051 17.8956 15.2854C17.3285 14.7184 16.4812 14.5984 15.7953 14.9252L14.8243 13.9543C15.4619 13.1575 15.8843 12.1816 16.0027 11.1152H17.4143C17.6684 11.8312 18.3522 12.3457 19.1543 12.3457C20.172 12.3457 21 11.5177 21 10.5C21 9.4823 20.172 8.6543 19.1543 8.6543ZM16.1555 3.97451C16.3958 3.73402 16.7852 3.73386 17.0255 3.97451C17.2655 4.21436 17.2655 4.60464 17.0257 4.84449C16.7856 5.0845 16.3954 5.0845 16.1555 4.84449C15.915 4.604 15.915 4.215 16.1555 3.97451ZM4.84449 4.84449C4.60464 5.0845 4.2142 5.08434 3.97451 4.84449C3.7345 4.60464 3.7345 4.21436 3.97435 3.97435C4.21484 3.73402 4.604 3.73386 4.84449 3.97435C5.08498 4.215 5.08498 4.604 4.84449 4.84449ZM1.8457 11.1152C1.50652 11.1152 1.23047 10.8392 1.23047 10.5C1.23047 10.1608 1.50652 9.88477 1.8457 9.88477C2.18488 9.88477 2.46094 10.1608 2.46094 10.5C2.46094 10.8392 2.18488 11.1152 1.8457 11.1152ZM4.84449 17.0255C4.60416 17.266 4.21484 17.2661 3.97451 17.0255C3.7345 16.7856 3.7345 16.3954 3.97451 16.1555H3.97435C4.21436 15.9155 4.60464 15.9157 4.84449 16.1555C5.08498 16.396 5.08498 16.785 4.84449 17.0255ZM10.5 1.23047C10.8392 1.23047 11.1152 1.50652 11.1152 1.8457C11.1152 2.18488 10.8392 2.46094 10.5 2.46094C10.1608 2.46094 9.88477 2.18488 9.88477 1.8457C9.88477 1.50652 10.1608 1.23047 10.5 1.23047ZM10.5 19.7695C10.1608 19.7695 9.88477 19.4935 9.88477 19.1543C9.88477 18.8151 10.1608 18.5391 10.5 18.5391C10.8392 18.5391 11.1152 18.8151 11.1152 19.1543C11.1152 19.4935 10.8392 19.7695 10.5 19.7695ZM12.3457 14.3906C11.7861 14.6572 11.1601 14.8066 10.5 14.8066C9.8399 14.8066 9.21394 14.6572 8.6543 14.3906V14.1914C8.6543 13.1737 9.4823 12.3457 10.5 12.3457C11.5177 12.3457 12.3457 13.1737 12.3457 14.1914V14.3906ZM9.26953 9.88477C9.26953 9.20625 9.82148 8.6543 10.5 8.6543C11.1785 8.6543 11.7305 9.20625 11.7305 9.88477C11.7305 10.5633 11.1785 11.1152 10.5 11.1152C9.82148 11.1152 9.26953 10.5633 9.26953 9.88477ZM13.5137 13.5733C13.3499 12.7732 12.8744 12.0854 12.2203 11.6423C12.6769 11.1953 12.9609 10.5727 12.9609 9.88477C12.9609 8.52773 11.857 7.42383 10.5 7.42383C9.14296 7.42383 8.03906 8.52773 8.03906 9.88477C8.03906 10.5727 8.32313 11.1953 8.77975 11.6423C8.12558 12.0854 7.65005 12.7732 7.48631 13.5733C6.68891 12.7911 6.19336 11.7024 6.19336 10.5C6.19336 8.12526 8.12526 6.19336 10.5 6.19336C12.8747 6.19336 14.8066 8.12526 14.8066 10.5C14.8066 11.7024 14.3111 12.7911 13.5137 13.5733ZM16.1555 16.1555C16.3954 15.9157 16.7856 15.9155 17.0255 16.1555C17.2655 16.3954 17.2655 16.7856 17.0257 17.0257C16.7852 17.266 16.396 17.2661 16.1555 17.0257C15.915 16.785 15.915 16.396 16.1555 16.1555ZM19.1543 11.1152C18.8151 11.1152 18.5391 10.8392 18.5391 10.5C18.5391 10.1608 18.8151 9.88477 19.1543 9.88477C19.4935 9.88477 19.7695 10.1608 19.7695 10.5C19.7695 10.8392 19.4935 11.1152 19.1543 11.1152Z"
          fill="#55739C"/>
</svg>
