<svg width="20" height="20" viewBox="0 0 20 20" fill="none" xmlns="http://www.w3.org/2000/svg">
    <defs>
        <style>
            .pc-cls-1 {
            fill: #55739C;
            }
            .pc-cls-2 {
            fill: #fff;
            fill-rule: evenodd;
            }
        </style>
    </defs>
    <circle class="pc-cls-1" cx="10" cy="10" r="10"/>
    <path class="pc-cls-2"
          d="M6.07773 1.52362L0.629492 6.97185L0.0119732 9.48665C-0.0226166 9.62746 0.0189068 9.77607 0.121426 9.87859C0.224278 9.98144 0.372988 10.0225 0.513359 9.98804L3.02818 9.37052L8.47641 3.92229L6.07773 1.52362ZM0.798378 9.20164L1.0107 8.33697L1.66304 8.98931L0.798378 9.20164Z"
          transform="translate(5 5)"/>
    <path class="pc-cls-2"
          d="M9.81651 1.69566L8.30448 0.183633C8.05964 -0.0612108 7.66269 -0.0612108 7.41785 0.183633L6.8158 0.785682L9.21446 3.18435L9.81651 2.5823C10.0614 2.33748 10.0614 1.9405 9.81651 1.69566Z"
          transform="translate(5 5)"/>
</svg>