<svg xmlns="http://www.w3.org/2000/svg" width="12" height="12" viewBox="0 0 12 12">
    <defs>
        <style>
            .cls-1 {
            fill: #55739C;
            fill-rule: evenodd;
            }
        </style>
    </defs>
    <path class="cls-1"
          d="M1430,529a6,6,0,1,0,6,6A6.006,6.006,0,0,0,1430,529Zm0,11a5,5,0,1,1,5-5A5,5,0,0,1,1430,540Zm2.63-7.317-2.67,2.662-1.94-1.554a0.5,0.5,0,0,0-.7.078,0.49,0.49,0,0,0,.08.7l2.29,1.833a0.486,0.486,0,0,0,.31.11,0.477,0.477,0,0,0,.35-0.146l2.98-2.979A0.5,0.5,0,1,0,1432.63,532.683Z"
          transform="translate(-1424 -529)"/>
</svg>