<svg xmlns="http://www.w3.org/2000/svg" width="10" height="12" viewBox="0 0 10 12">
    <defs>
        <style>
            .cls-1 {
            fill: #55739C;
            fill-rule: evenodd;
            }
        </style>
    </defs>
    <path class="cls-1"
          d="M1433.53,549.466a5,5,0,0,0-7.07,7.061l3,3.24a0.744,0.744,0,0,0,1.08,0l2.99-3.234A4.984,4.984,0,0,0,1433.53,549.466Zm-0.71,6.369-2.82,3.054-2.83-3.061A4,4,0,1,1,1432.82,555.835ZM1430,551a1.993,1.993,0,0,0-1.42.586A2,2,0,1,0,1430,551Zm0,3h0a1,1,0,0,1-1-1,0.983,0.983,0,0,1,.29-0.707A1,1,0,1,1,1430,554Z"
          transform="translate(-1425 -548)"/>
</svg>
