<svg xmlns="http://www.w3.org/2000/svg" width="20" height="20" viewBox="0 0 20 20">
  <defs>
    <style>
      .cls-1 {
        fill: #a9a9b6;
        fill-rule: evenodd;
      }
    </style>
  </defs>
  <path class="cls-1" d="M1435,700a9.991,9.991,0,0,0-8.33,4.481v-3.648H1425V707.5h6.67v-1.667h-3.87a8.308,8.308,0,1,1-1,5.683,0.829,0.829,0,1,0-1.63.3A10,10,0,1,0,1435,700Zm4.39,11.343h-5.25V705.13a0.86,0.86,0,0,1,1.72,0v4.5h3.53A0.857,0.857,0,1,1,1439.39,711.343Z" transform="translate(-1425 -700)"/>
</svg>
