<svg xmlns="http://www.w3.org/2000/svg" width="20" height="20" viewBox="0 0 20 20">
  <defs>
    <style>
      .cls-1 {
        fill: #a9a9b6;
        fill-rule: evenodd;
      }
    </style>
  </defs>
  <path class="cls-1" d="M1434,364a9.988,9.988,0,0,1,8.33,4.481v-3.648H1444V371.5h-6.67v-1.667h3.87a8.308,8.308,0,1,0,1,5.683,0.829,0.829,0,1,1,1.63.3A10,10,0,1,1,1434,364Zm-4.39,11.343h5.25V369.13a0.86,0.86,0,0,0-1.72,0v4.5h-3.53A0.857,0.857,0,1,0,1429.61,375.343Z" transform="translate(-1424 -364)"/>
</svg>
