<svg id="icon" xmlns="http://www.w3.org/2000/svg" width="22" height="28" viewBox="0 0 22 28">
  <defs>
    <style>
      .cls-1 {
        fill: #5ea645;
      }

      .cls-1, .cls-2, .cls-3 {
        fill-rule: evenodd;
      }

      .cls-2 {
        fill: #8ac974;
      }

      .cls-3 {
        fill: #fff;
      }
    </style>
  </defs>
  <path class="cls-1" d="M430.091,761H413.909A2.9,2.9,0,0,1,411,758.107V738.786L416.818,733h13.273A2.9,2.9,0,0,1,433,735.892v22.215A2.9,2.9,0,0,1,430.091,761Z" transform="translate(-411 -733)"/>
  <path class="cls-2" d="M414.7,739.509H411l5.818-5.785v3.681A2.11,2.11,0,0,1,414.7,739.509Z" transform="translate(-411 -733)"/>
  <path id="XLS" class="cls-3" d="M420.552,756.739l-2.007-3.421,1.885-3.252h-1.3l-1.284,2.4-1.283-2.4h-1.294l1.884,3.262-2.006,3.411h1.3l1.395-2.541,1.406,2.541h1.3Zm4.153,0v-0.98h-2.353v-5.693h-1.131v6.673h3.484Zm2.7,0.12a1.958,1.958,0,0,0,2.211-1.961c0-2.241-3.046-1.951-3.046-3.141a0.827,0.827,0,0,1,.927-0.811,2.011,2.011,0,0,1,1.437.571l0.55-.841a2.792,2.792,0,0,0-1.956-.72,1.917,1.917,0,0,0-2.109,1.861c0,2.221,3.046,1.8,3.046,3.171a0.924,0.924,0,0,1-1.06.881,2.187,2.187,0,0,1-1.619-.72l-0.571.86A2.919,2.919,0,0,0,427.4,756.859Z" transform="translate(-411 -733)"/>
</svg>
