<svg id="icon" xmlns="http://www.w3.org/2000/svg" width="22" height="28" viewBox="0 0 22 28">
  <defs>
    <style>
      .cls-1 {
        fill: #e73629;
      }

      .cls-1, .cls-2, .cls-3 {
        fill-rule: evenodd;
      }

      .cls-2 {
        fill: #fa6c61;
      }

      .cls-3 {
        fill: #fff;
      }
    </style>
  </defs>
  <path class="cls-1" d="M430.091,830H413.909A2.9,2.9,0,0,1,411,827.107V807.786L416.818,802h13.273A2.9,2.9,0,0,1,433,804.892v22.215A2.9,2.9,0,0,1,430.091,830Z" transform="translate(-411 -802)"/>
  <path class="cls-2" d="M414.7,808.509H411l5.818-5.785v3.681A2.11,2.11,0,0,1,414.7,808.509Z" transform="translate(-411 -802)"/>
  <path id="PPT" class="cls-3" d="M415.905,825.739v-2.521h1.182a2.077,2.077,0,0,0,0-4.152h-2.313v6.673h1.131Zm1.049-3.5h-1.049v-2.2h1.049A1.107,1.107,0,0,1,416.954,822.238Zm4.174,3.5v-2.521h1.182a2.077,2.077,0,0,0,0-4.152H420v6.673h1.131Zm1.049-3.5h-1.049v-2.2h1.049A1.107,1.107,0,0,1,422.177,822.238Zm5.305,3.5v-5.7h1.559v-0.97H424.8v0.97h1.558v5.7h1.121Z" transform="translate(-411 -802)"/>
</svg>
