<svg id="icon" xmlns="http://www.w3.org/2000/svg" width="22" height="28" viewBox="0 0 22 28">
  <defs>
    <style>
      .cls-1 {
        fill: #3075af;
      }

      .cls-1, .cls-2, .cls-3 {
        fill-rule: evenodd;
      }

      .cls-2 {
        fill: #5ea1d9;
      }

      .cls-3 {
        fill: #fff;
      }
    </style>
  </defs>
  <path class="cls-1" d="M430.091,619H413.909A2.9,2.9,0,0,1,411,616.107V596.786L416.818,591h13.273A2.9,2.9,0,0,1,433,593.892v22.215A2.9,2.9,0,0,1,430.091,619Z" transform="translate(-411 -591)"/>
  <path class="cls-2" d="M414.7,597.509H411l5.818-5.785v3.681A2.11,2.11,0,0,1,414.7,597.509Z" transform="translate(-411 -591)"/>
  <path id="DOC" class="cls-3" d="M415.8,614.739c1.834,0,2.863-1.39,2.863-3.331s-1.039-3.342-2.863-3.342h-2.027v6.673H415.8Zm0-.98h-0.9v-4.723h0.9c1.131,0,1.7.971,1.7,2.372C417.5,612.778,416.912,613.759,415.8,613.759Zm6.374,1.1c1.722,0,2.72-1.49,2.72-3.451s-1-3.452-2.72-3.452-2.72,1.491-2.72,3.452S420.454,614.859,422.175,614.859Zm0-.99c-1.018,0-1.568-1.081-1.568-2.461,0-1.4.55-2.472,1.568-2.472s1.569,1.071,1.569,2.472C423.744,612.788,423.184,613.869,422.175,613.869Zm6.283,0.99a2.291,2.291,0,0,0,2.159-1.56l-0.937-.411a1.342,1.342,0,0,1-1.222.981c-1,0-1.62-1.041-1.62-2.461s0.621-2.472,1.62-2.472a1.341,1.341,0,0,1,1.212.9l0.937-.41a2.29,2.29,0,0,0-2.149-1.471c-1.7,0-2.771,1.441-2.771,3.452S426.756,614.859,428.458,614.859Z" transform="translate(-411 -591)"/>
</svg>
