<svg id="icon" xmlns="http://www.w3.org/2000/svg" width="22" height="28" viewBox="0 0 22 28">
  <defs>
    <style>
      .cls-1 {
        fill: #e72944;
      }

      .cls-1, .cls-2, .cls-3 {
        fill-rule: evenodd;
      }

      .cls-2 {
        fill: #ff819c;
      }

      .cls-3 {
        fill: #fff;
      }
    </style>
  </defs>
  <path class="cls-1" d="M430.091,690H413.909A2.9,2.9,0,0,1,411,687.107V667.786L416.818,662h13.273A2.9,2.9,0,0,1,433,664.892v22.215A2.9,2.9,0,0,1,430.091,690Z" transform="translate(-411 -662)"/>
  <path class="cls-2" d="M414.7,668.509H411l5.818-5.785v3.681A2.11,2.11,0,0,1,414.7,668.509Z" transform="translate(-411 -662)"/>
  <path id="PDF" class="cls-3" d="M415.905,685.739v-2.521h1.182a2.077,2.077,0,0,0,0-4.152h-2.313v6.673h1.131Zm1.049-3.5h-1.049v-2.2h1.049A1.107,1.107,0,0,1,416.954,682.238Zm5.071,3.5c1.833,0,2.862-1.39,2.862-3.331s-1.039-3.342-2.862-3.342H420v6.673h2.028Zm0-.98h-0.9v-4.723h0.9c1.13,0,1.7.971,1.7,2.372C423.726,683.778,423.135,684.759,422.025,684.759Zm5.039,0.98v-2.911h2.516v-0.981h-2.516v-1.811h2.588v-0.97h-3.719v6.673h1.131Z" transform="translate(-411 -662)"/>
</svg>
