<svg width="14" height="13" viewBox="0 0 14 13" fill="none" xmlns="http://www.w3.org/2000/svg">
<path fill-rule="evenodd" clip-rule="evenodd" d="M10.3109 2.23662C10.3109 1.86526 10.612 1.56421 10.9833 1.56421H12.5775C12.9489 1.56421 13.2499 1.86526 13.2499 2.23662C13.2499 2.60798 12.9489 2.90902 12.5775 2.90902H10.9833C10.612 2.90902 10.3109 2.60798 10.3109 2.23662Z" fill="#55739C"/>
<path fill-rule="evenodd" clip-rule="evenodd" d="M0.25 2.23662C0.25 1.86526 0.551047 1.56421 0.922407 1.56421H7.10537C7.47673 1.56421 7.77778 1.86526 7.77778 2.23662C7.77778 2.60798 7.47673 2.90902 7.10537 2.90902H0.922407C0.551047 2.90902 0.25 2.60798 0.25 2.23662Z" fill="#55739C"/>
<path fill-rule="evenodd" clip-rule="evenodd" d="M9.60423 1.59481C9.24312 1.59481 8.96249 1.87544 8.96249 2.23656C8.96249 2.59053 9.25748 2.8783 9.60423 2.8783C9.92948 2.8783 10.2244 2.59062 10.2244 2.23656C10.2244 1.87506 9.9438 1.59481 9.60423 1.59481ZM7.61768 2.23656C7.61768 1.13272 8.50039 0.25 9.60423 0.25C10.7296 0.25 11.5692 1.17618 11.5692 2.23656C11.5692 3.30436 10.7009 4.22311 9.60423 4.22311C8.52912 4.22311 7.61768 3.34754 7.61768 2.23656Z" fill="#55739C"/>
<path fill-rule="evenodd" clip-rule="evenodd" d="M8.84558 10.4659C8.84558 10.0945 9.14663 9.79346 9.51799 9.79346H12.5772C12.9485 9.79346 13.2496 10.0945 13.2496 10.4659C13.2496 10.8372 12.9485 11.1383 12.5772 11.1383H9.51799C9.14663 11.1383 8.84558 10.8372 8.84558 10.4659Z" fill="#55739C"/>
<path fill-rule="evenodd" clip-rule="evenodd" d="M0.25 10.4659C0.25 10.0945 0.551047 9.79346 0.922407 9.79346H5.66196C6.03332 9.79346 6.33437 10.0945 6.33437 10.4659C6.33437 10.8372 6.03332 11.1383 5.66196 11.1383H0.922407C0.551047 11.1383 0.25 10.8372 0.25 10.4659Z" fill="#55739C"/>
<path fill-rule="evenodd" clip-rule="evenodd" d="M8.10796 9.82426C7.75861 9.82979 7.47628 10.1225 7.47628 10.4659C7.47628 10.8199 7.77127 11.1077 8.11803 11.1077C8.472 11.1077 8.75977 10.8127 8.75977 10.4659C8.75977 10.1471 8.47685 9.84089 8.10796 9.82426ZM6.13147 10.4659C6.13147 9.39082 7.00705 8.47937 8.11803 8.47937C8.12482 8.47937 8.13161 8.47947 8.13839 8.47968C9.18635 8.51143 10.1046 9.36587 10.1046 10.4659C10.1046 11.541 9.22901 12.4525 8.11803 12.4525C7.04292 12.4525 6.13147 11.5769 6.13147 10.4659Z" fill="#55739C"/>
<path fill-rule="evenodd" clip-rule="evenodd" d="M0.25 6.35112C0.25 5.97976 0.551047 5.67871 0.922407 5.67871H2.58125C2.95261 5.67871 3.25366 5.97976 3.25366 6.35112C3.25366 6.72248 2.95261 7.02352 2.58125 7.02352H0.922407C0.551047 7.02352 0.25 6.72248 0.25 6.35112Z" fill="#55739C"/>
<path fill-rule="evenodd" clip-rule="evenodd" d="M5.78687 6.35112C5.78687 5.97976 6.08791 5.67871 6.45927 5.67871H12.5776C12.949 5.67871 13.25 5.97976 13.25 6.35112C13.25 6.72248 12.949 7.02352 12.5776 7.02352H6.45927C6.08791 7.02352 5.78687 6.72248 5.78687 6.35112Z" fill="#55739C"/>
<path fill-rule="evenodd" clip-rule="evenodd" d="M3.98167 5.7308C3.61329 5.7308 3.33993 6.01865 3.33993 6.351C3.33993 6.71212 3.62056 6.99274 3.98167 6.99274C4.33565 6.99274 4.62342 6.69776 4.62342 6.351C4.62342 6.01865 4.35006 5.7308 3.98167 5.7308ZM1.99512 6.351C1.99512 5.26148 2.8851 4.38599 3.98167 4.38599C5.07824 4.38599 5.96823 5.26148 5.96823 6.351C5.96823 7.42611 5.09265 8.33756 3.98167 8.33756C2.87784 8.33756 1.99512 7.45484 1.99512 6.351Z" fill="#55739C"/>
</svg>
