<svg id="icon" xmlns="http://www.w3.org/2000/svg" width="31.969" height="23" viewBox="0 0 31.969 23">
  <defs>
    <style>
      .cls-1, .cls-2 {
        fill: #cdd1d6;
      }

      .cls-2, .cls-3 {
        fill-rule: evenodd;
      }

      .cls-3 {
        fill: #e1e5e9;
      }
    </style>
  </defs>
  <rect id="Rounded_Rectangle_2790" data-name="Rounded Rectangle 2790" class="cls-1" width="17" height="11" rx="3" ry="3"/>
  <path class="cls-2" d="M436,497.091A2.9,2.9,0,0,1,433.107,500H411.892A2.9,2.9,0,0,1,409,497.091V485.818h0v-2.909A2.9,2.9,0,0,1,411.893,480h21.214A2.9,2.9,0,0,1,436,482.909v2.909h0v11.273Z" transform="translate(-409 -477)"/>
  <path class="cls-3" d="M436.825,497.661A4.091,4.091,0,0,1,433.107,500H411.892c-1.6,0-2.523-1.047-2.068-2.339l3.195-9.066h0l0.824-2.339a4.09,4.09,0,0,1,3.718-2.34h21.214c1.6,0,2.523,1.047,2.068,2.34l-0.825,2.339h0Z" transform="translate(-409 -477)"/>
</svg>
