<svg width="100" height="100" viewBox="0 0 100 100" fill="none" xmlns="http://www.w3.org/2000/svg">
    <circle cx="50" cy="50" r="49" fill="#E9E9E9" stroke="#E9E9E9" stroke-width="2"/>
    <g opacity="0.3">
        <path d="M49.4242 54.2551C48.5194 53.6239 47.5526 53.1095 46.5414 52.7165C47.8866 51.4937 48.7789 49.7809 48.9341 47.8634C50.9739 45.8755 53.6478 44.7858 56.5141 44.7858C58.7518 44.7858 60.9003 45.4597 62.7279 46.7344C63.3828 47.1912 64.2833 47.0308 64.74 46.3758C65.1965 45.7211 65.0361 44.8202 64.3815 44.3637C63.4768 43.7324 62.5097 43.2183 61.4985 42.825C62.9828 41.4758 63.916 39.5303 63.916 37.3711C63.916 33.3066 60.6099 30 56.5457 30C52.4819 30 49.1758 33.3066 49.1758 37.3711C49.1758 39.5216 50.1014 41.46 51.5755 42.8087C51.3737 42.8863 51.173 42.9685 50.9742 43.056C50.0698 43.4541 49.2195 43.9436 48.4288 44.5184C47.3383 41.809 44.6834 39.8914 41.5887 39.8914C37.5249 39.8914 34.2184 43.198 34.2184 47.2623C34.2184 49.4068 35.139 51.3399 36.6052 52.688C32.685 54.1569 29.5065 57.3118 28.2125 61.3355C27.7834 62.6697 28.0106 64.0847 28.836 65.2177C29.6614 66.3504 30.9385 67 32.3398 67H44.9126C45.7107 67 46.3577 66.3529 46.3577 65.5545C46.3577 64.7564 45.7107 64.1093 44.9126 64.1093H32.3398C31.8726 64.1093 31.4469 63.8928 31.1717 63.515C30.8965 63.1373 30.8208 62.6655 30.9636 62.2206C32.392 57.7791 36.7483 54.6772 41.5571 54.6772C43.7945 54.6772 45.9433 55.3511 47.7708 56.6258C48.4254 57.0826 49.3262 56.9219 49.783 56.2672C50.2394 55.6125 50.0791 54.7116 49.4242 54.2551V54.2551ZM56.5457 32.8907C59.0161 32.8907 61.0257 34.9005 61.0257 37.3711C61.0257 39.8415 59.0161 41.8516 56.5457 41.8516C54.0757 41.8516 52.0658 39.8415 52.0658 37.3711C52.0658 34.9005 54.0757 32.8907 56.5457 32.8907ZM41.5887 42.7818C44.059 42.7818 46.0686 44.792 46.0686 47.2623C46.0686 49.7329 44.059 51.7428 41.5887 51.7428C39.1184 51.7428 37.1088 49.7329 37.1088 47.2623C37.1088 44.792 39.1184 42.7818 41.5887 42.7818V42.7818ZM65 60.1348C65 60.9329 64.353 61.58 63.5547 61.58H59.5806V65.5545C59.5806 66.3529 58.9336 67 58.1356 67C57.3373 67 56.6903 66.3529 56.6903 65.5545V61.58H52.7162C51.9182 61.58 51.2712 60.9329 51.2712 60.1348C51.2712 59.3364 51.9182 58.6893 52.7162 58.6893H56.6903V54.7148C56.6903 53.9166 57.3373 53.2695 58.1356 53.2695C58.9336 53.2695 59.5806 53.9166 59.5806 54.7148V58.6893H63.5547C64.353 58.6893 65 59.3364 65 60.1348V60.1348Z"
              fill="#55739C"/>
    </g>
</svg>
