<svg xmlns="http://www.w3.org/2000/svg" width="18" height="17" viewBox="0 0 18 17">
  <defs>
    <style>
      .cls-1 {
        fill: #acb3b8;
        fill-rule: evenodd;
      }
    </style>
  </defs>
  <path class="cls-1" d="M1647.25,897.435h-7.5a0.772,0.772,0,0,0,0,1.544h7.5A0.772,0.772,0,0,0,1647.25,897.435Zm0-7.718a0.764,0.764,0,0,0,.75-0.772V882.77a0.75,0.75,0,1,0-1.5,0v6.175A0.758,0.758,0,0,0,1647.25,889.717Zm4.5,0a0.764,0.764,0,0,0,.75-0.772V882.77a0.75,0.75,0,1,0-1.5,0v6.175A0.758,0.758,0,0,0,1651.75,889.717Zm4.5-7.719a0.758,0.758,0,0,0-.75.772v6.175a0.75,0.75,0,1,0,1.5,0V882.77A0.764,0.764,0,0,0,1656.25,882Zm-0.62,9.6-1.31,1.978h-5.14l-1.31-1.978a0.737,0.737,0,0,0-1.04-.2,0.773,0.773,0,0,0-.2,1.072l3.88,5.858a1.477,1.477,0,0,0,2.48,0l3.88-5.859a0.791,0.791,0,0,0-.2-1.072A0.734,0.734,0,0,0,1655.63,891.6Zm-3.88,5.859-1.55-2.337h3.1Z" transform="translate(-1639 -882)"/>
</svg>
