<svg width="20" height="20" viewBox="0 0 20 20" fill="none" xmlns="http://www.w3.org/2000/svg">
<path d="M13.75 0H2.5C1.12125 0 0 1.12125 0 2.5V15C0 15.2425 0.14 15.4637 0.36 15.5662C0.44375 15.605 0.535 15.625 0.625 15.625C0.76875 15.625 0.91125 15.575 1.025 15.48L4.60125 12.5H13.75C15.1287 12.5 16.25 11.3787 16.25 10V2.5C16.25 1.12125 15.1287 0 13.75 0Z" fill="#55739C"/>
<path d="M14.5 13.9999C16 13.9999 17.7002 12.9999 17.7002 10.9999V5.00781C18.9858 5.11011 20 6.18848 20 7.49988V19.3749C20 19.5264 19.9453 19.6693 19.8506 19.7806C19.7949 19.8457 19.7261 19.8999 19.6465 19.9386C19.5586 19.9799 19.4663 19.9999 19.375 19.9999C19.3042 19.9999 19.2334 19.9879 19.166 19.9642C19.125 19.9496 19.0845 19.9307 19.0464 19.9072C19.0298 19.8971 19.0137 19.8861 18.998 19.8744L18.9839 19.8636L16.0298 17.4999H7.5C6.12109 17.4999 5 16.3787 5 14.9999V14.3749C5 14.3337 5.00391 14.2935 5.01172 14.2544C5.02979 14.1603 5.06934 14.0737 5.125 13.9999H14.5Z" fill="#55739C"/>
<rect x="4" y="3" width="8" height="2" rx="1" fill="#E9EBF0"/>
<rect x="4" y="7" width="5" height="2" rx="1" fill="#E9EBF0"/>
</svg>
