<svg width="20" height="20" viewBox="0 0 20 20" fill="none" xmlns="http://www.w3.org/2000/svg">
    <circle class="like-1" cx="10" cy="10" r="9" fill="#55739C" stroke="#55739C"/>
    <path class="like-2"
          d="M14.2067 6.88077C13.689 6.31281 12.9787 6 12.2065 6C11.6293 6 11.1006 6.18461 10.6352 6.54867C10.4004 6.73243 10.1876 6.95725 10 7.21966C9.81247 6.95733 9.59961 6.73243 9.3647 6.54867C8.89938 6.18461 8.37074 6 7.7935 6C7.02126 6 6.31088 6.31281 5.79323 6.88077C5.28175 7.44209 5 8.20894 5 9.04016C5 9.89569 5.31517 10.6788 5.99182 11.5048C6.59714 12.2436 7.46712 12.9937 8.47458 13.8621C8.81859 14.1587 9.20853 14.4949 9.61342 14.8531C9.72038 14.9478 9.85764 15 10 15C10.1423 15 10.2796 14.9478 10.3864 14.8532C10.7913 14.495 11.1815 14.1587 11.5257 13.8619C12.533 12.9936 13.4029 12.2436 14.0083 11.5047C14.6849 10.6788 15 9.89569 15 9.04008C15 8.20894 14.7182 7.44209 14.2067 6.88077Z"
          fill="#E9EBF0" stroke="#55739C"/>
</svg>
