<svg width="532" height="142" viewBox="0 0 532 142" fill="none" xmlns="http://www.w3.org/2000/svg">
    <path d="M353.352 120.689C352.974 122.832 351.88 124.673 350.07 126.213C348.264 127.749 346.286 128.519 344.139 128.519H288.879C289.259 126.374 291.512 120.689 293.656 120.689H353.352Z"
          fill="#55739C"/>
    <path d="M515.991 121.923C515.643 123.888 514.641 125.577 512.984 126.986C511.327 128.397 509.516 129.097 507.549 129.097H480.551C480.897 127.136 481.9 125.445 483.56 124.037C485.216 122.628 487.029 121.923 488.996 121.923H515.991Z"
          fill="#55739C"/>
    <path d="M504.382 90.9565C501.587 90.9565 498.987 91.9429 496.587 93.9116C494.188 95.8804 492.741 98.2645 492.247 101.061C491.75 103.888 492.348 106.285 494.037 108.255C495.732 110.224 497.987 111.208 500.81 111.208H510.693C512.662 111.208 514.224 111.914 515.391 113.325C516.553 114.731 516.962 116.414 516.616 118.376H499.572C494.846 118.376 491.107 116.682 488.357 113.291C485.609 109.901 484.656 105.82 485.494 101.061C486.328 96.3335 488.719 92.2664 492.663 88.8739C496.607 85.4852 500.944 83.7886 505.671 83.7886H522.715C522.369 85.7534 521.366 87.4364 519.708 88.8426C518.043 90.2508 516.233 90.9565 514.264 90.9565H504.382Z"
          fill="#55739C"/>
    <path d="M505.971 68.0337C506.514 68.6769 507.268 69.0005 508.237 69.0005C509.178 69.0005 510.027 68.6678 510.781 68.0181C511.538 67.3618 512 66.563 512.165 65.6255L513.168 59.9419C513.499 58.0604 513.128 56.4556 512.052 55.1138C510.975 53.7772 509.5 53.1099 507.621 53.1099L505.415 65.6255C505.243 66.5916 505.429 67.3976 505.971 68.0337V68.0337ZM517.396 73.313C519.359 73.313 520.921 74.0181 522.077 75.4289C523.234 76.8377 523.643 78.5252 523.297 80.4868H506.168C501.44 80.4868 497.716 78.7863 495.003 75.3846C492.281 71.9803 491.34 67.9159 492.172 63.188L493.949 53.1099C495.841 53.1099 497.337 53.7726 498.435 55.0962C499.536 56.4178 499.919 58.0181 499.587 59.8976L499.006 63.188C498.512 66.007 499.09 68.4022 500.75 70.3644C502.409 72.3286 504.646 73.313 507.458 73.313H517.396Z"
          fill="#55739C"/>
    <path d="M503.969 34.5918C503.471 37.4199 504.069 39.8125 505.768 41.7656C507.467 43.7233 509.733 44.6986 512.562 44.6986C515.396 44.6986 517.99 43.7233 520.346 41.7656C522.712 39.8125 524.141 37.4199 524.639 34.5918C525.137 31.7676 524.552 29.373 522.88 27.3997C521.215 25.431 518.967 24.4466 516.134 24.4466C513.303 24.4466 510.693 25.431 508.302 27.3997C505.909 29.373 504.467 31.7676 503.969 34.5918ZM497.215 34.5918C498.049 29.8639 500.44 25.7969 504.387 22.3887C508.333 18.9824 512.672 17.2767 517.397 17.2767C522.128 17.2767 525.846 18.9824 528.565 22.3887C531.281 25.7969 532.224 29.8639 531.389 34.5918C530.555 39.3262 528.18 43.3887 524.264 46.7813C520.349 50.1699 516.027 51.8711 511.297 51.8711C506.572 51.8711 502.835 50.1699 500.085 46.7813C497.337 43.3887 496.38 39.3262 497.215 34.5918V34.5918Z"
          fill="#55739C"/>
    <path d="M90.7721 78.4959L94.7317 56.0337C95.8216 49.8573 94.6159 44.5402 91.1289 40.078C87.6367 35.6164 82.8033 33.382 76.6223 33.382C70.4387 33.382 64.819 35.6164 59.7565 40.078C54.6888 44.5402 51.6158 49.8573 50.526 56.0337C49.4375 62.2121 50.6405 67.4979 54.1445 71.9002C57.6445 76.2993 62.4817 78.4959 68.6666 78.4959H90.7721V78.4959ZM110.559 56.0337L104 93.2329H66.1184C55.7851 93.2329 47.5442 89.6125 41.3906 82.369C35.2291 75.132 33.0664 66.3508 34.8854 56.0337C36.7018 45.7166 41.97 36.9087 50.694 29.6027C59.4153 22.3032 68.9348 18.6496 79.2656 18.6496C89.5898 18.6496 97.8437 22.3032 104.019 29.6027C110.197 36.9087 112.378 45.7166 110.559 56.0337V56.0337Z"
          fill="#55739C"/>
    <path d="M133.215 56.0962C132.128 62.259 133.337 67.5317 136.858 71.9178C140.374 76.3065 145.206 78.4959 151.367 78.4959H158.545C162.646 78.4959 165.892 79.9354 168.277 82.8039C170.661 85.6789 171.496 89.1567 170.777 93.2329H148.775C138.458 93.2329 130.224 89.6125 124.072 82.369C117.924 75.13 115.759 66.3488 117.577 56.0317L127.44 0.0955459C131.725 0.0955459 135.13 1.6359 137.661 4.71404C140.19 7.79866 141.081 11.4816 140.324 15.7765L133.215 56.0962Z"
          fill="#55739C"/>
    <path d="M188.958 56.0962C187.874 62.259 189.089 67.5317 192.604 71.9178C196.12 76.3065 200.957 78.4959 207.115 78.4959H214.294C218.398 78.4959 221.638 79.9354 224.026 82.8039C226.41 85.6789 227.245 89.1567 226.526 93.2329H204.523C194.204 93.2329 185.973 89.6125 179.82 82.369C173.673 75.13 171.508 66.3488 173.327 56.0317L183.191 0.0955459C187.474 0.0955459 190.88 1.6359 193.41 4.71404C195.939 7.79866 196.827 11.4816 196.068 15.7765L188.958 56.0962Z"
          fill="#55739C"/>
    <path d="M249.816 77.5721C249.062 81.8579 246.87 85.5454 243.251 88.6164C239.635 91.6925 235.68 93.2329 231.397 93.2329L237.986 55.8462C239.807 45.5291 245.066 36.7524 253.767 29.509C262.47 22.2674 271.979 18.6496 282.299 18.6496H304.302C303.575 22.7544 301.513 26.2498 298.116 29.1424C294.719 32.0311 290.966 33.4758 286.863 33.4758H279.685C273.531 33.4758 267.926 35.6672 262.863 40.0467C257.803 44.4328 254.732 49.6991 253.647 55.8481L249.816 77.5721Z"
          fill="#55739C"/>
    <path d="M324.402 78.4087C330.552 78.4087 336.141 76.2212 341.174 71.8377C346.204 67.4536 349.259 62.188 350.345 56.0337C351.43 49.884 350.236 44.5871 346.762 40.1385C343.289 35.6964 338.474 33.4758 332.324 33.4758C326.168 33.4758 320.569 35.6964 315.53 40.1385C310.484 44.5871 307.428 49.884 306.344 56.0337L302.4 78.4087H324.402V78.4087ZM292.591 107.333C288.969 110.422 285.012 111.969 280.725 111.969L290.582 56.0715C292.402 45.7453 297.672 36.9263 306.387 29.6138C315.1 22.3058 324.618 18.6496 334.937 18.6496C345.253 18.6496 353.499 22.3032 359.665 29.6027C365.84 36.9087 368.012 45.7166 366.195 56.0337C364.376 66.3508 359.111 75.132 350.408 82.369C341.704 89.6125 332.164 93.2329 321.784 93.2329H299.691L299.163 96.2303C298.404 100.539 296.21 104.235 292.591 107.333V107.333Z"
          fill="#55739C"/>
    <path d="M427.961 78.4959L431.922 56.0337C433.008 49.8573 431.819 44.5402 428.348 40.078C424.876 35.6164 420.061 33.382 413.907 33.382C407.751 33.382 402.144 35.6164 397.099 40.078C392.055 44.5402 388.986 49.8573 387.898 56.0337C386.809 62.2121 388.005 67.4979 391.488 71.9002C394.97 76.2993 399.794 78.4959 405.952 78.4959H427.961V78.4959ZM441.095 94.7928C439.266 105.168 434.001 113.959 425.31 121.168C416.616 128.374 407.077 131.979 396.704 131.979H374.711C375.432 127.901 377.492 124.423 380.887 121.553C384.282 118.68 388.032 117.242 392.13 117.242H399.307C405.458 117.242 411.082 115.045 416.178 110.659C421.267 106.264 424.358 100.987 425.445 94.8195L425.726 93.2329H403.45C393.13 93.2329 384.898 89.6125 378.751 82.369C372.599 75.132 370.439 66.3508 372.255 56.0337C374.074 45.7166 379.342 36.9087 388.064 29.6027C396.789 22.3032 406.31 18.6496 416.638 18.6496C426.961 18.6496 435.213 22.3032 441.391 29.6001C447.569 36.9015 449.75 45.7121 447.932 56.0226L441.095 94.7928Z"
          fill="#55739C"/>
    <path d="M468.069 124.115C467.19 129.102 462.435 133.144 457.448 133.144C452.466 133.144 449.135 129.102 450.016 124.115C450.894 119.131 455.65 115.088 460.631 115.088C465.618 115.088 468.948 119.131 468.069 124.115V124.115Z"
          fill="#55739C"/>
    <path d="M65.9075 130.693C124.46 131.687 290.982 130.693 290.982 130.693L290.721 118.284L0.492188 118.858C0.492188 118.858 7.35418 129.698 65.9075 130.693V130.693Z"
          fill="#55739C"/>
    <path d="M280.647 118.294C280.647 118.294 287.098 116.73 289.824 115.697C298.044 112.584 294.095 125.103 292.44 132.509C290.784 139.917 277.249 141.578 277.249 141.578L280.647 118.294Z"
          fill="#55739C"/>
</svg>
