<svg width="36" height="36" viewBox="0 0 36 36" fill="none" xmlns="http://www.w3.org/2000/svg">
    <rect width="36" height="36" fill="#E9E9E9"/>
    <g opacity="0.3" transform="translate(11, 8.5)">
        <path d="M13.9651 2.06348C14.2804 2.37878 14.4543 2.79846 14.4543 3.24414L14.4544 3.33984H11.1037V0H11.1994C11.6386 0 12.0799 0.178345 12.3908 0.489258L13.9651 2.06348Z"
              fill="#55739C"/>
        <path fill-rule="evenodd" clip-rule="evenodd"
              d="M11 9.75C11 11.821 9.32107 13.5 7.25 13.5C5.17893 13.5 3.5 11.821 3.5 9.75C3.5 7.67896 5.17893 6 7.25 6C9.32107 6 11 7.67896 11 9.75ZM9.60355 8.85352C9.79881 8.65833 9.79881 8.34167 9.60355 8.14648C9.40829 7.95117 9.09171 7.95117 8.89645 8.14648L6.75 10.2928L5.85355 9.39648C5.65829 9.20117 5.34171 9.20117 5.14645 9.39648C4.95119 9.59167 4.95119 9.90833 5.14645 10.1035L6.75 11.7072L9.60355 8.85352Z"
              fill="#55739C"/>
        <path fill-rule="evenodd" clip-rule="evenodd"
              d="M10.558 4.45325H14.4694V17.3301C14.4694 18.251 13.7054 19 12.7846 19H1.66991C0.749084 19 0 18.251 0 17.3301V1.67004C0 0.749268 0.749084 0.00012207 1.66991 0.00012207H10.0195V3.89661C10.0195 4.20422 10.2504 4.45325 10.558 4.45325ZM12 9.75C12 12.3734 9.87335 14.5 7.25 14.5C4.62665 14.5 2.5 12.3734 2.5 9.75C2.5 7.12659 4.62665 5 7.25 5C9.87335 5 12 7.12659 12 9.75Z"
              fill="#55739C"/>
    </g>
</svg>
