<svg width="36" height="36" viewBox="0 0 36 36" fill="none" xmlns="http://www.w3.org/2000/svg">
    <rect width="36" height="36" fill="#E9E9E9"/>
    <g opacity="0.3" transform="translate(8.5, 9.5)">
        <path d="M0 3C0 1.89543 0.895431 1 2 1H17C18.1046 1 19 1.89543 19 3V15C19 16.1046 18.1046 17 17 17H2C0.895431 17 0 16.1046 0 15V3Z"
              fill="#55739C"/>
        <path fill-rule="evenodd" clip-rule="evenodd" d="M19 6H0V5H19V6Z" fill="#E9E9E9"/>
        <path fill-rule="evenodd" clip-rule="evenodd"
              d="M9.5 6.75C9.70083 6.75 9.88218 6.87017 9.96046 7.05512L10.9128 9.30538L13.3473 9.51579C13.5474 9.53308 13.7177 9.66842 13.7798 9.85942C13.8418 10.0504 13.7836 10.26 13.6319 10.3916L11.786 11.9928L12.3382 14.3731C12.3836 14.5687 12.3075 14.7725 12.145 14.8906C11.9826 15.0086 11.7652 15.018 11.5932 14.9144L9.5 13.6537L7.40683 14.9144C7.23479 15.018 7.01744 15.0086 6.85496 14.8906C6.69249 14.7725 6.61641 14.5687 6.66179 14.3731L7.21396 11.9928L5.36814 10.3916C5.21643 10.26 5.15818 10.0504 5.22024 9.85942C5.28231 9.66842 5.45263 9.53308 5.65272 9.51579L8.08715 9.30538L9.03954 7.05512C9.11782 6.87017 9.29916 6.75 9.5 6.75ZM9.5 8.53282L8.89069 9.97247C8.81848 10.1431 8.65786 10.2598 8.47328 10.2757L6.91581 10.4103L8.09671 11.4347C8.23665 11.5561 8.29801 11.7449 8.25614 11.9254L7.90288 13.4482L9.24203 12.6417C9.40073 12.5461 9.59927 12.5461 9.75797 12.6417L11.0971 13.4482L10.7439 11.9254C10.702 11.7449 10.7633 11.5561 10.9033 11.4347L12.0842 10.4103L10.5267 10.2757C10.3421 10.2598 10.1815 10.1431 10.1093 9.97247L9.5 8.53282Z"
              fill="#E9E9E9"/>
        <path fill-rule="evenodd" clip-rule="evenodd"
              d="M5.5 -2.18557e-08C5.77614 -9.78512e-09 6 0.223858 6 0.5L6 3.5C6 3.77614 5.77614 4 5.5 4C5.22386 4 5 3.77614 5 3.5L5 0.5C5 0.223858 5.22386 -3.39262e-08 5.5 -2.18557e-08Z"
              fill="#E9E9E9"/>
        <path fill-rule="evenodd" clip-rule="evenodd"
              d="M13.5 -2.18557e-08C13.7761 -9.78512e-09 14 0.223858 14 0.5L14 3.5C14 3.77614 13.7761 4 13.5 4C13.2239 4 13 3.77614 13 3.5L13 0.5C13 0.223858 13.2239 -3.39262e-08 13.5 -2.18557e-08Z"
              fill="#E9E9E9"/>
        <path fill-rule="evenodd" clip-rule="evenodd"
              d="M5.5 -2.18557e-08C5.77614 -9.78512e-09 6 0.223858 6 0.5L6 1.5C6 1.77614 5.77614 2 5.5 2C5.22386 2 5 1.77614 5 1.5L5 0.5C5 0.223858 5.22386 -3.39262e-08 5.5 -2.18557e-08Z"
              fill="#55739C"/>
        <path fill-rule="evenodd" clip-rule="evenodd"
              d="M13.5 -2.18557e-08C13.7761 -9.78512e-09 14 0.223858 14 0.5L14 1.5C14 1.77614 13.7761 2 13.5 2C13.2239 2 13 1.77614 13 1.5L13 0.5C13 0.223858 13.2239 -3.39262e-08 13.5 -2.18557e-08Z"
              fill="#55739C"/>
    </g>
</svg>
