<svg width="36" height="36" viewBox="0 0 36 36" fill="none" xmlns="http://www.w3.org/2000/svg">
    <rect width="36" height="36" fill="#E9E9E9"/>
    <g opacity="0.3" transform="translate(10, 8.5)">
        <path d="M14.4543 3.24416C14.4543 2.7984 14.2804 2.37877 13.9651 2.06349L12.3908 0.489248C12.0799 0.17831 11.6386 0 11.1994 0H11.1037V3.33983H14.4544L14.4543 3.24416Z"
              fill="#55739C"/>
        <path d="M10.1656 11.4868C10.2721 11.1633 10.458 10.8622 10.7005 10.6181L14.4694 6.86443V4.45322H10.558C10.2504 4.45322 10.0195 4.20426 10.0195 3.89659V0.00012207H1.66991C0.749086 0.00012207 0 0.749208 0 1.67004V17.3301C0 18.2509 0.749086 19 1.66991 19H12.7846C13.7054 19 14.4694 18.2509 14.4694 17.3301V13.1757L13.8576 13.7726C13.6098 14.0183 13.3195 14.1971 12.9923 14.3064L11.2223 14.8973L10.9527 14.912C10.5069 14.912 10.0851 14.6951 9.82314 14.332C9.5633 13.9705 9.49264 13.5019 9.63395 13.0784L10.1656 11.4868ZM2.78319 10.0196H8.3315C8.63917 10.0196 8.88813 10.2686 8.88813 10.5762C8.88813 10.8839 8.63917 11.1329 8.3315 11.1329H2.78319C2.47552 11.1329 2.22655 10.8839 2.22655 10.5762C2.22655 10.2686 2.47552 10.0196 2.78319 10.0196ZM2.22655 8.34969C2.22655 8.04202 2.47552 7.79305 2.78319 7.79305H8.3315C8.63917 7.79305 8.88813 8.04202 8.88813 8.34969C8.88813 8.65736 8.63917 8.90633 8.3315 8.90633H2.78319C2.47552 8.90633 2.22655 8.65736 2.22655 8.34969ZM2.22655 12.8028C2.22655 12.4951 2.47552 12.2462 2.78319 12.2462H8.3315C8.63917 12.2462 8.88813 12.4951 8.88813 12.8028C8.88813 13.1105 8.63917 13.3594 8.3315 13.3594H2.78319C2.47552 13.3594 2.22655 13.1105 2.22655 12.8028ZM10.558 15.586C10.8657 15.586 11.1147 15.8349 11.1147 16.1426C11.1147 16.4503 10.8658 16.6993 10.558 16.6993H7.21822C6.91055 16.6993 6.66158 16.4503 6.66158 16.1426C6.66158 15.8349 6.91055 15.586 7.21822 15.586H10.558ZM2.78319 6.67978C2.47552 6.67978 2.22655 6.43081 2.22655 6.12314C2.22655 5.81547 2.47552 5.5665 2.78319 5.5665H10.558C10.8657 5.5665 11.1147 5.81547 11.1147 6.12314C11.1147 6.43081 10.8657 6.67978 10.558 6.67978H2.78319Z"
              fill="#55739C"/>
        <path d="M11.1737 11.9791L10.6894 13.432C10.6168 13.6496 10.8239 13.8567 11.0416 13.784L12.4936 13.299L11.1737 11.9791Z"
              fill="#55739C"/>
        <path d="M15.4972 7.39612L11.8312 11.0621L13.4122 12.6431C14.2408 11.8144 15.853 10.202 17.078 8.97697L15.4972 7.39612Z"
              fill="#55739C"/>
        <path d="M18.6729 5.79893C18.4772 5.60214 18.1891 5.48962 17.8836 5.48962C17.578 5.48962 17.29 5.60214 17.0932 5.79949L16.2843 6.60835L17.8651 8.18913C18.3079 7.74627 18.614 7.44019 18.674 7.38019C19.1088 6.94471 19.1088 6.23541 18.6729 5.79893Z"
              fill="#55739C"/>
        <path d="M18.674 7.38355C18.6741 7.38355 18.6741 7.3835 18.6741 7.38345C18.6758 7.38171 18.6766 7.38094 18.678 7.37952C18.6766 7.38098 18.6758 7.38176 18.674 7.38355Z"
              fill="#55739C"/>
        <path d="M18.6782 7.37953C18.6804 7.37728 18.683 7.37465 18.6844 7.37329C18.683 7.3747 18.6804 7.37728 18.6782 7.37953Z"
              fill="#55739C"/>
        <path d="M18.6844 7.3736C18.6893 7.36868 18.6894 7.36858 18.6844 7.3736V7.3736Z" fill="#55739C"/>
    </g>
</svg>
