<svg width="36" height="36" viewBox="0 0 36 36" fill="none" xmlns="http://www.w3.org/2000/svg">
    <rect width="36" height="36" fill="#E9E9E9"/>
    <g opacity="0.3" transform="translate(9, 10)">
        <path d="M7.41797 8.4375H10.582V9.49219H7.41797V8.4375Z" fill="#55739C"/>
        <path d="M14.6032 9.49217H11.6367V10.0195C11.6367 10.3109 11.4008 10.5469 11.1094 10.5469H6.89062C6.59921 10.5469 6.36328 10.3109 6.36328 10.0195V9.49217H3.39684C2.715 9.49217 2.11198 9.05753 1.8961 8.41071L0 2.72144V14.2383C0 15.1106 0.709717 15.8203 1.58203 15.8203H16.418C17.2903 15.8203 18 15.1106 18 14.2383V2.72185L16.1038 8.41071C15.888 9.05753 15.285 9.49217 14.6032 9.49217Z"
              fill="#55739C"/>
        <path d="M11.1094 0H6.89062C6.01831 0 5.30859 0.709717 5.30859 1.58203V2.10938H0.907333L2.89627 8.07701C2.96837 8.29276 3.16969 8.4375 3.39684 8.4375H6.36328V7.91016C6.36328 7.61874 6.59921 7.38281 6.89062 7.38281H11.1094C11.4008 7.38281 11.6367 7.61874 11.6367 7.91016V8.4375H14.6032C14.8303 8.4375 15.0316 8.29276 15.1037 8.07701L17.0928 2.10938H12.6914V1.58203C12.6914 0.709717 11.9817 0 11.1094 0ZM6.36328 2.10938V1.58203C6.36328 1.29103 6.59962 1.05469 6.89062 1.05469H11.1094C11.4004 1.05469 11.6367 1.29103 11.6367 1.58203V2.10938H6.36328Z"
              fill="#55739C"/>
    </g>
</svg>
