<svg width="36" height="36" viewBox="0 0 36 36" fill="none" xmlns="http://www.w3.org/2000/svg">
    <rect width="36" height="36" fill="#E9E9E9"/>
    <g opacity="0.3" transform="translate(10, 9.5)">
        <path d="M7.49005 8.04224C7.49005 7.49292 7.93687 7.04614 8.48615 7.04614C9.03543 7.04614 9.48224 7.49292 9.48224 8.04224C9.48224 8.59155 9.03543 9.03833 8.48615 9.03833C7.93687 9.03833 7.49005 8.59155 7.49005 8.04224Z"
              fill="#55739C"/>
        <path fill-rule="evenodd" clip-rule="evenodd"
              d="M14.0973 8.00195C14.303 7.42236 14.8566 7.00586 15.5059 7.00586C16.3297 7.00586 17 7.67615 17 8.5C17 9.32385 16.3297 9.99414 15.5059 9.99414C14.8566 9.99414 14.303 9.57764 14.0973 8.99805H12.9545C12.8587 9.86133 12.5168 10.6514 12.0006 11.2964L12.7867 12.0823C13.3419 11.8177 14.0278 11.9149 14.4869 12.3739C15.0694 12.9565 15.0694 13.9043 14.4869 14.4869C13.9043 15.0696 12.9565 15.0695 12.3739 14.4869C11.9149 14.0278 11.8179 13.3419 12.0823 12.7866L11.2962 12.0006C10.6342 12.5305 9.84045 12.8611 8.99805 12.9546V14.0973C9.5778 14.303 9.99414 14.8566 9.99414 15.5059C9.99414 16.3297 9.32385 17 8.5 17C7.67615 17 7.00586 16.3297 7.00586 15.5059C7.00586 14.8566 7.4222 14.303 8.00195 14.0973V12.9546C7.1606 12.8612 6.3667 12.5312 5.70381 12.0006L4.91769 12.7866C5.18216 13.3418 5.08527 14.0278 4.62613 14.4869C4.04352 15.0695 3.09555 15.0695 2.51306 14.4869C1.93059 13.9043 1.93059 12.9565 2.51306 12.3739C2.9722 11.9148 3.65805 11.8177 4.2133 12.0823L4.9994 11.2961C4.4832 10.6514 4.14131 9.86133 4.04547 8.99805H2.90268C2.69698 9.57764 2.14342 9.99414 1.49414 9.99414C0.670288 9.99414 0 9.32385 0 8.5C0 7.67615 0.670288 7.00586 1.49414 7.00586C2.14342 7.00586 2.69698 7.42236 2.90268 8.00195H4.04547C4.14131 7.13867 4.4832 6.34863 4.9994 5.70386L4.2133 4.91772C4.01031 5.0144 3.78996 5.06311 3.5696 5.06311C3.18698 5.06311 2.80437 4.91748 2.51306 4.6261C1.93059 4.04358 1.93059 3.0957 2.51306 2.51306C3.09567 1.93054 4.04352 1.93054 4.62613 2.51306C5.08514 2.97217 5.18216 3.65808 4.91769 4.21338L5.70381 4.99939C6.34868 4.48315 7.13867 4.14136 8.00195 4.04541V2.90271C7.4222 2.69702 7.00586 2.14343 7.00586 1.49414C7.00586 0.670288 7.67615 0 8.5 0C9.32385 0 9.99414 0.670288 9.99414 1.49414C9.99414 2.14343 9.5778 2.69702 8.99805 2.90271V4.04541C9.86133 4.14136 10.6513 4.48315 11.2962 4.99939L12.0823 4.21326C11.8179 3.65808 11.9147 2.97217 12.3739 2.51306C12.9565 1.93042 13.9045 1.93054 14.4869 2.51306C15.0694 3.0957 15.0694 4.04358 14.4869 4.6261C14.0277 5.08545 13.3423 5.18237 12.7867 4.91772L12.0006 5.70386C12.5168 6.34863 12.8587 7.13867 12.9545 8.00195H14.0973ZM13.7825 3.21741C13.588 3.02271 13.2728 3.02283 13.0783 3.21741C12.8836 3.41211 12.8836 3.72705 13.0783 3.92175C13.2724 4.11597 13.5884 4.11597 13.7827 3.92175C13.9768 3.72754 13.9768 3.41162 13.7825 3.21741ZM3.21747 3.92175C3.4115 4.11584 3.72757 4.11597 3.92174 3.92175C4.11641 3.72705 4.11641 3.41211 3.92174 3.21729C3.72705 3.02271 3.41202 3.02283 3.21733 3.21729C3.02318 3.41162 3.02318 3.72754 3.21747 3.92175ZM0.996094 8.5C0.996094 8.77454 1.21957 8.99805 1.49414 8.99805C1.76872 8.99805 1.99219 8.77454 1.99219 8.5C1.99219 8.22546 1.76872 8.00195 1.49414 8.00195C1.21957 8.00195 0.996094 8.22546 0.996094 8.5ZM3.21747 13.7826C3.41202 13.9773 3.72719 13.9772 3.92174 13.7826C4.11641 13.5879 4.11641 13.2729 3.92174 13.0782C3.72757 12.8842 3.41162 12.884 3.21733 13.0782C3.02318 13.2725 3.02318 13.5884 3.21747 13.7826ZM8.99805 1.49414C8.99805 1.2196 8.77458 0.996094 8.5 0.996094C8.22543 0.996094 8.00195 1.2196 8.00195 1.49414C8.00195 1.76868 8.22543 1.99219 8.5 1.99219C8.77458 1.99219 8.99805 1.76868 8.99805 1.49414ZM8.00195 15.5059C8.00195 15.7804 8.22543 16.0039 8.5 16.0039C8.77458 16.0039 8.99805 15.7804 8.99805 15.5059C8.99805 15.2313 8.77458 15.0078 8.5 15.0078C8.22543 15.0078 8.00195 15.2313 8.00195 15.5059ZM13.7825 13.0782C13.5884 12.884 13.2724 12.8842 13.0783 13.0782C12.8836 13.2729 12.8836 13.5879 13.0783 13.7827C13.2729 13.9773 13.588 13.9772 13.7827 13.7827C13.9768 13.5884 13.9768 13.2725 13.7825 13.0782ZM15.0078 8.5C15.0078 8.77454 15.2313 8.99805 15.5059 8.99805C15.7804 8.99805 16.0039 8.77454 16.0039 8.5C16.0039 8.22546 15.7804 8.00195 15.5059 8.00195C15.2313 8.00195 15.0078 8.22546 15.0078 8.5ZM6.992 11.5286V11.673C6.64149 11.5055 6.32347 11.281 6.05 11.0114C6.18575 10.3708 6.56859 9.82043 7.09357 9.46509C6.72392 9.10315 6.49396 8.59912 6.49396 8.04224C6.49396 6.94373 7.38759 6.05005 8.48615 6.05005C9.5847 6.05005 10.4783 6.94373 10.4783 8.04224C10.4783 8.59912 10.2484 9.10315 9.87874 9.46509C10.4037 9.82043 10.7865 10.3708 10.9223 11.0114C10.6488 11.281 10.3308 11.5055 9.98029 11.673V11.5286C9.98029 10.7047 9.31 10.0344 8.48615 10.0344C7.66229 10.0344 6.992 10.7047 6.992 11.5286Z"
              fill="#55739C"/>
    </g>
</svg>
