<?xml version="1.0" encoding="iso-8859-1"?>
<svg version="1.1" id="Layer_1" xmlns="http://www.w3.org/2000/svg" xmlns:xlink="http://www.w3.org/1999/xlink" x="0px"
     y="0px"
     viewBox="0 0 500.001 500.001" style="enable-background:new 0 0 500.001 500.001;" xml:space="preserve">
<g>
	<g>
		<path d="M462.88,62.54c-23.932-23.936-55.816-37.12-89.76-37.12c-33.948,0-65.828,13.18-89.764,37.12L6.228,339.672
			C2.212,343.68,0,349.02,0,354.7c0,5.676,2.212,11.012,6.228,15.032l98.54,98.536c4.004,4.008,9.344,6.224,15.024,6.224
			c5.684,0,11.016-2.212,15.032-6.224l251.896-251.9c4.02-4.012,6.232-9.356,6.232-15.032c0-5.68-2.212-11.02-6.232-15.032
			l-49.276-49.268c-4.016-4.012-9.348-6.228-15.032-6.228c-5.68,0-11.012,2.212-15.028,6.228L106.336,338.088
			c-4.012,4.012-6.228,9.352-6.228,15.032c0,5.68,2.212,11.016,6.228,15.028c4.016,4.016,9.356,6.232,15.032,6.232
			c5.676,0,11.016-2.212,15.036-6.232l186.008-186.016l19.212,19.208L119.788,423.172L51.316,354.7L313.42,92.604
			c15.916-15.916,37.12-24.684,59.7-24.684s43.78,8.768,59.7,24.684c32.916,32.916,32.916,86.48,0.012,119.4L206.544,438.292
			c-4.02,4.012-6.228,9.348-6.228,15.032c0,5.676,2.204,11.012,6.228,15.028c4.012,4.016,9.348,6.228,15.024,6.228
			c5.684,0,11.02-2.208,15.032-6.228L462.892,242.06C512.372,192.568,512.372,112.032,462.88,62.54z"
              fill="#55739C"/>
	</g>
</g>
</svg>
