<svg width="58" height="58" viewBox="0 0 58 58" fill="none" xmlns="http://www.w3.org/2000/svg">
    <defs>
        <style>
            .pc-cls-1 {
            fill: #ca1212;
            }
            .pc-cls-2 {
            fill: #fff;
            fill-rule: evenodd;
            }
        </style>
    </defs>
    <circle class="pc-cls-1" cx="29" cy="29" r="29"/>
    <path class="pc-cls-2"
          d="M38.1327 4.25731C43.6304 9.79026 43.6304 18.7967 38.0564 24.3297C32.5586 29.8626 23.6095 29.8626 18.1118 24.2528C12.6141 18.7198 12.6141 9.71342 18.1118 4.18046C20.7385 1.52156 24.4189 0 28.1604 0C31.9172 0 35.506 1.59841 38.1327 4.25731Z"
          transform="scale(0.45), translate(37 30)"/>
    <path class="pc-cls-2"
          d="M39.4767 33.3976C36.1628 35.703 32.1464 36.9786 28.1148 36.9325C24.0831 36.9786 20.0667 35.703 16.7528 33.3976C6.94851 35.7337 0 44.4789 0 54.6072V57.0202H28.1148H56.2295V54.6072C56.2448 44.4789 49.2963 35.7337 39.4767 33.3976Z"
          transform="scale(0.45), translate(37 30)"/>
</svg>