<svg width="12" height="12" viewBox="0 0 12 12" fill="none" xmlns="http://www.w3.org/2000/svg">
<path fill-rule="evenodd" clip-rule="evenodd" d="M6 12C9.31371 12 12 9.31371 12 6C12 2.68629 9.31371 0 6 0C2.68629 0 0 2.68629 0 6C0 9.31371 2.68629 12 6 12ZM9.65812 9.26017C10.4306 8.39404 10.9 7.25184 10.9 6C10.9 3.2938 8.70619 1.1 6 1.1C3.2938 1.1 1.1 3.2938 1.1 6C1.1 7.25185 1.56944 8.39405 2.34189 9.26017C2.74674 8.41043 3.43882 7.72386 4.29278 7.32632C3.80492 6.87008 3.5 6.22065 3.5 5.5C3.5 4.11929 4.61929 3 6 3C7.38071 3 8.5 4.11929 8.5 5.5C8.5 6.22065 8.19508 6.87008 7.70722 7.32632C8.56118 7.72386 9.25326 8.41043 9.65812 9.26017ZM8.7872 10.0306C8.3862 8.8773 7.28911 8.05 6 8.05C4.7109 8.05 3.6138 8.87731 3.21281 10.0306C4.00406 10.5788 4.96452 10.9 6 10.9C7.03548 10.9 7.99595 10.5788 8.7872 10.0306ZM6 6.9C6.7732 6.9 7.4 6.2732 7.4 5.5C7.4 4.7268 6.7732 4.1 6 4.1C5.2268 4.1 4.6 4.7268 4.6 5.5C4.6 6.2732 5.2268 6.9 6 6.9Z" fill="#55739C"/>
</svg>
