<svg width="36" height="35" viewBox="0 0 36 35" fill="none" xmlns="http://www.w3.org/2000/svg">
    <path d="M15.1922 20.1039L25.5602 9.73592C25.5604 9.73613 25.5606 9.73634 25.5608 9.73655L15.193 20.1043L20.6907 25.602C20.9509 25.8622 21.3731 25.8624 21.6333 25.6022C21.7303 25.5052 21.7911 25.3857 21.8158 25.2606L26.6577 9.496C26.7446 9.2597 26.6932 8.98404 26.5035 8.79431C26.3199 8.61079 26.056 8.55668 25.8251 8.63199L10.0256 13.4842C9.9045 13.5103 9.78928 13.5704 9.69519 13.6645C9.43516 13.9245 9.43494 14.3459 9.69451 14.6062L15.1922 20.1039Z"
          fill="#55739C"/>
    <path d="M24.6148 10.6807L13.3053 18.2203L13.1105 21.5057C13.1068 21.6809 13.1723 21.8575 13.306 21.9912C13.4565 22.1417 13.6611 22.2052 13.8571 22.1817L17.0754 21.9909L24.6148 10.6807L14.2481 21.0484C14.2483 21.0485 14.2479 21.0482 14.2481 21.0484L24.6148 10.6807Z"
          fill="#0094E6"/>
</svg>
