<svg width="12" height="12" viewBox="0 0 12 12" fill="none" xmlns="http://www.w3.org/2000/svg">
<path fill-rule="evenodd" clip-rule="evenodd" d="M6 10.9C8.70619 10.9 10.9 8.70619 10.9 6C10.9 3.2938 8.70619 1.1 6 1.1C3.2938 1.1 1.1 3.2938 1.1 6C1.1 8.70619 3.2938 10.9 6 10.9ZM6 12C9.31371 12 12 9.31371 12 6C12 2.68629 9.31371 0 6 0C2.68629 0 0 2.68629 0 6C0 9.31371 2.68629 12 6 12Z" fill="#55739C"/>
<path fill-rule="evenodd" clip-rule="evenodd" d="M6.07531 3.44946C6.37907 3.44946 6.62531 3.69571 6.62531 3.99946V5.44965H8.00023C8.30399 5.44965 8.55023 5.69589 8.55023 5.99965C8.55023 6.3034 8.30399 6.54965 8.00023 6.54965H6.62531V7.99952C6.62531 8.30328 6.37907 8.54952 6.07531 8.54952C5.77155 8.54952 5.52531 8.30328 5.52531 7.99952V6.54965H4.00023C3.69648 6.54965 3.45023 6.3034 3.45023 5.99965C3.45023 5.69589 3.69648 5.44965 4.00023 5.44965H5.52531V3.99946C5.52531 3.69571 5.77155 3.44946 6.07531 3.44946Z" fill="#55739C"/>
</svg>
