<svg width="21" height="19" viewBox="0 0 21 19" fill="none" xmlns="http://www.w3.org/2000/svg">
    <path d="M20.3886 2.48905C20.3873 2.48905 20.386 2.48889 20.3848 2.48889H14.8066V1.86667C14.8066 0.837407 13.9786 0 12.9609 0H8.03906C7.02136 0 6.19336 0.837407 6.19336 1.86667V2.48889H0.615234C0.27269 2.48889 0 2.77278 0 3.11111V16.8C0 17.8293 0.828003 18.6667 1.8457 18.6667H19.1543C20.172 18.6667 21 17.8293 21 16.8V3.12424C21 3.12343 21 3.12262 21 3.12181C20.9764 2.71315 20.728 2.49132 20.3886 2.48905ZM7.42383 1.86667C7.42383 1.52363 7.69988 1.24444 8.03906 1.24444H12.9609C13.3001 1.24444 13.5762 1.52363 13.5762 1.86667V2.48889H7.42383V1.86667ZM19.5311 3.73333L17.6205 9.53005C17.5367 9.78461 17.3022 9.95556 17.037 9.95556H13.5762V9.33333C13.5762 8.98965 13.3008 8.71111 12.9609 8.71111H8.03906C7.69924 8.71111 7.42383 8.98965 7.42383 9.33333V9.95556H3.96297C3.69781 9.95556 3.46326 9.78461 3.37946 9.53005L1.46887 3.73333H19.5311ZM12.3457 9.95556V11.2H8.6543V9.95556H12.3457ZM19.7695 16.8C19.7695 17.143 19.4935 17.4222 19.1543 17.4222H1.8457C1.50652 17.4222 1.23047 17.143 1.23047 16.8V6.94539L2.21212 9.92363C2.46366 10.6872 3.16734 11.2 3.96297 11.2H7.42383V11.8222C7.42383 12.1659 7.69924 12.4444 8.03906 12.4444H12.9609C13.3008 12.4444 13.5762 12.1659 13.5762 11.8222V11.2H17.037C17.8327 11.2 18.5363 10.6872 18.7879 9.92363L19.7695 6.94539V16.8Z"
          fill="#55739C"/>
</svg>
