<svg xmlns="http://www.w3.org/2000/svg" width="14" height="10" viewBox="0 0 14 10">
  <defs>
    <style>
      .send-cls-1 {
        fill: #bfc6cd;
        fill-rule: evenodd;
      }
    </style>
  </defs>
  <path class="send-cls-1" d="M1616.13,185h-12.26a0.853,0.853,0,0,0-.87.834v8.334a0.852,0.852,0,0,0,.87.833h12.26a0.852,0.852,0,0,0,.87-0.833v-8.334A0.853,0.853,0,0,0,1616.13,185Zm-0.3,8.89h-11.66v-7.779h11.66v7.779Zm-5.83-1.437,4.5-4.282a0.551,0.551,0,0,0,0-.786,0.61,0.61,0,0,0-.83,0l-3.67,3.5-3.67-3.5a0.61,0.61,0,0,0-.83,0,0.551,0.551,0,0,0,0,.786Z" transform="translate(-1603 -185)"/>
</svg>
