<svg width="24" height="24" viewBox="0 0 24 24" fill="none" xmlns="http://www.w3.org/2000/svg">
<path fill-rule="evenodd" clip-rule="evenodd" d="M11.9743 2.75634e-05C14.3487 -0.00506058 16.6714 0.694405 18.6482 2.00988C20.6249 3.32536 22.167 5.19772 23.0791 7.38998C23.9913 9.58224 24.2327 11.9958 23.7725 14.3253C23.3124 16.6548 22.1716 18.7954 20.4944 20.4762C18.8172 22.157 16.679 23.3024 14.3506 23.7675C12.0221 24.2326 9.608 23.9965 7.41379 23.089C5.21958 22.1815 3.34388 20.6435 2.02416 18.6695C0.704441 16.6956 1.10522e-05 14.3745 5.60059e-06 12C-0.00306512 8.82094 1.2567 5.7708 3.50224 3.52044C5.74778 1.27008 8.79519 0.00377648 11.9743 2.75634e-05Z" fill="#55739C"/>
<path fill-rule="evenodd" clip-rule="evenodd" d="M14.3697 8.84574V7.2553C14.0864 7.19826 13.7969 7.17781 13.5083 7.19444C12.8655 7.19959 11.6955 7.06588 11.104 8.33531C10.886 8.90948 10.7854 9.52156 10.8083 10.1353H9.57829V11.8222H10.8212V16.8H12.8655V11.8187H14.3655V10.1572H12.9255C12.9255 10.1572 12.7969 9.36474 13.1998 9.03217C13.4783 8.80417 14.3697 8.84574 14.3697 8.84574Z" fill="white"/>
</svg>
