<svg width="24" height="24" viewBox="0 0 24 24" fill="none" xmlns="http://www.w3.org/2000/svg">
    <path d="M12 24C18.6274 24 24 18.6274 24 12C24 5.37258 18.6274 0 12 0C5.37258 0 0 5.37258 0 12C0 18.6274 5.37258 24 12 24Z"
          fill="#55739C"/>
    <path fill-rule="evenodd" clip-rule="evenodd"
          d="M11.4181 15.3039H11.9953C12.0916 15.2932 12.1828 15.2551 12.2581 15.1941C12.3106 15.1245 12.3379 15.0391 12.3356 14.952C12.3356 14.952 12.3227 14.2133 12.6845 14.1043C13.0377 13.9971 13.4899 14.8185 13.9723 15.1342C14.1549 15.2722 14.3816 15.3387 14.6098 15.3211L15.8934 15.3039C15.8934 15.3039 16.5696 15.2638 16.2509 14.7582C15.994 14.3539 15.6707 13.996 15.2946 13.6994C14.4892 12.9836 14.5969 13.0995 15.566 11.8607C16.1561 11.1065 16.393 10.646 16.3198 10.4488C16.2509 10.261 15.8159 10.3105 15.8159 10.3105L14.3686 10.3191C14.3038 10.312 14.2382 10.3229 14.1791 10.3506C14.1251 10.3883 14.082 10.4395 14.0542 10.4992C13.9042 10.8725 13.7257 11.2336 13.5201 11.5794C12.874 12.6269 12.6156 12.6825 12.5122 12.617C12.2667 12.4654 12.327 12.008 12.327 11.6832C12.327 10.668 12.4863 10.245 12.0125 10.1352C11.7909 10.084 11.5636 10.0624 11.3363 10.071C10.9333 10.0351 10.5272 10.075 10.1389 10.1886C9.97089 10.2657 9.84598 10.4376 9.92351 10.447C10.086 10.4607 10.2378 10.5337 10.3499 10.6521C10.4509 10.8452 10.5 11.0614 10.4921 11.2792C10.4921 11.2792 10.5782 12.474 10.2939 12.6226C10.1001 12.7243 9.83309 12.5167 9.25592 11.5661C9.06192 11.2359 8.88925 10.8936 8.73902 10.5414C8.71243 10.4818 8.67265 10.4291 8.62272 10.3872C8.55428 10.3443 8.47823 10.3151 8.39873 10.301L7.02474 10.3096C6.92282 10.31 6.8235 10.3419 6.74045 10.401C6.72316 10.4376 6.71385 10.4774 6.71311 10.5179C6.71236 10.5583 6.7202 10.5985 6.73614 10.6357C6.73614 10.6357 7.81298 13.0478 9.03194 14.262C9.34133 14.5844 9.71146 14.8423 10.121 15.021C10.5305 15.1997 10.9714 15.2955 11.4181 15.303V15.3039Z"
          fill="white"/>
</svg>
