<svg width="17" height="23" viewBox="0 0 17 23" fill="none" xmlns="http://www.w3.org/2000/svg">
    <path class="task_fill" d="M11.4153 9.89819C11.4236 9.8125 11.4126 9.72534 11.3823 9.64355C11.3682 9.60547 11.3499 9.5686 11.3274 9.53345C11.3044 9.4978 11.2773 9.46387 11.2458 9.43286C11.0164 9.20654 10.6445 9.20654 10.415 9.43286L7.89331 11.918L6.84009 10.8801C6.7417 10.7832 6.61694 10.7278 6.48853 10.7139C6.31763 10.6956 6.14014 10.751 6.00928 10.8801C5.77979 11.1062 5.77979 11.4729 6.00928 11.6987L7.89331 13.5557L11.2458 10.2515C11.3462 10.1526 11.4026 10.0271 11.4153 9.89819Z"
          fill="#55739C"/>
    <path class="task_fill" fill-rule="evenodd" clip-rule="evenodd"
          d="M14.0615 11.2896C14.0615 14.3271 11.5627 16.7896 8.48071 16.7896C5.39844 16.7896 2.8999 14.3271 2.8999 11.2896C2.8999 8.25195 5.39844 5.78955 8.48071 5.78955C11.5627 5.78955 14.0615 8.25195 14.0615 11.2896ZM8.48071 15.6316C10.9141 15.6316 12.8865 13.6875 12.8865 11.2896C12.8865 8.89136 10.9141 6.94727 8.48071 6.94727C6.04736 6.94727 4.07471 8.89136 4.07471 11.2896C4.07471 13.6875 6.04736 15.6316 8.48071 15.6316Z"
          fill="#55739C"/>
    <path class="task_fill" fill-rule="evenodd" clip-rule="evenodd"
          d="M16.759 3.75684V20.0679C16.759 21.134 15.8916 22.0015 14.8252 22.0015H1.93384C0.867432 22.0015 0 21.134 0 20.0679V1.93384C0 0.867432 0.867432 0 1.93384 0H13.0022C13.5186 0 14.0044 0.201172 14.3694 0.566406L16.1926 2.38965C16.5579 2.75464 16.759 3.24023 16.759 3.75684ZM15.4697 20.0679V5.15649H12.2471C11.8909 5.15649 11.6023 4.86792 11.6023 4.51196V1.28906H1.93384C1.57837 1.28906 1.28906 1.57837 1.28906 1.93384V20.0679C1.28906 20.4233 1.57837 20.7124 1.93384 20.7124H14.8252C15.1807 20.7124 15.4697 20.4233 15.4697 20.0679ZM12.8916 1.28906L12.9224 1.28882C13.05 1.28735 13.2644 1.28442 13.458 1.47803L15.281 3.30103C15.4724 3.49243 15.4709 3.70117 15.47 3.83984V3.86743H12.8916V1.28906Z"
          fill="#55739C"/>
</svg>