<svg width="14" height="13" viewBox="0 0 14 13" fill="none" xmlns="http://www.w3.org/2000/svg">
    <path d="M11.1213 8.22317C10.7741 8.22317 10.4936 8.50379 10.4936 8.85093V10.8228C10.4936 11.1693 10.2123 11.4505 9.8658 11.4505H1.88331C1.53677 11.4505 1.25555 11.1693 1.25555 10.8228V2.66173C1.25555 2.31519 1.5368 2.03397 1.88331 2.03397H6.6076C6.95475 2.03397 7.23536 1.75335 7.23536 1.4062C7.23536 1.05906 6.95475 0.778442 6.6076 0.778442H1.88331C0.844975 0.778392 0 1.62339 0 2.66173V10.8228C0 11.8611 0.844975 12.7061 1.88331 12.7061H9.86575C10.9041 12.7061 11.7491 11.8618 11.7491 10.8228V8.85096C11.7491 8.50379 11.4685 8.22317 11.1213 8.22317Z"
          fill="#55739C"/>
    <path d="M13.2979 0.69867C12.8422 0.242916 12.247 0.013134 11.6475 0.000589836C11.0166 -0.0132163 10.3819 0.215279 9.9048 0.693016L5.65475 4.94306C5.03451 5.56582 4.69299 6.39197 4.69299 7.26958V8.67579C4.69299 9.02293 4.97361 9.30355 5.32076 9.30355H6.72696C7.6046 9.30355 8.43075 8.96203 9.05412 8.34116L13.2985 4.09677C14.2339 3.1608 14.2339 1.63532 13.2979 0.69867ZM8.16712 7.45292C7.78229 7.83649 7.27002 8.04805 6.72701 8.04805H5.94854V7.2696C5.94854 6.72657 6.1601 6.21431 6.54304 5.83011L9.3448 3.02835L10.9682 4.65177L8.16712 7.45292ZM12.4102 3.20977L11.8559 3.76411L10.2325 2.14069L10.7868 1.58638C11.235 1.13814 11.9632 1.13941 12.4102 1.58638C12.8572 2.03395 12.8572 2.76217 12.4102 3.20977Z"
          fill="#55739C"/>
</svg>
