<svg version="1.0" xmlns="http://www.w3.org/2000/svg"
     width="500.000000pt" height="500.000000pt" viewBox="0 0 500.000000 500.000000"
     preserveAspectRatio="xMidYMid meet">

    <g transform="translate(0.000000,500.000000) scale(0.100000,-0.100000)"
       fill="#55739C" stroke="none">
        <path d="M197 4989 c-56 -13 -89 -33 -129 -77 -68 -75 -63 112 -63 -2412 0
-1928 2 -2301 14 -2334 19 -56 84 -122 139 -143 45 -17 155 -18 2342 -18 2187
0 2297 1 2342 18 55 21 120 87 139 143 21 58 21 4610 0 4668 -18 53 -77 115
-131 140 l-45 21 -2285 2 c-1318 0 -2301 -3 -2323 -8z m2848 -953 c252 -56
434 -155 610 -331 224 -223 339 -477 361 -798 10 -139 -6 -248 -149 -1067
l-132 -755 -820 -3 c-686 -2 -836 0 -915 12 -266 42 -472 142 -656 318 -278
267 -409 618 -375 1000 38 410 197 757 484 1054 136 141 227 218 368 310 219
144 470 241 709 274 99 13 432 4 515 -14z"/>
        <path d="M2525 3459 c-219 -29 -426 -137 -605 -318 -141 -142 -237 -308 -286
-496 -22 -83 -27 -123 -28 -240 -1 -121 2 -150 22 -215 80 -255 253 -426 502
-495 58 -16 122 -19 567 -22 l502 -5 6 24 c3 13 41 230 86 483 78 449 80 463
76 590 -3 108 -9 144 -31 210 -78 232 -261 409 -479 465 -92 23 -239 32 -332
19z"/>
    </g>
</svg>