<svg id="fb-icon" xmlns="http://www.w3.org/2000/svg" width="40" height="40" viewBox="0 0 40 40">
  <defs>
    <style>
      .fb-cls-1 {
        fill: #3c5b9a;
      }

      .fb-cls-1, .fb-cls-2 {
        fill-rule: evenodd;
      }

      .fb-cls-2 {
        fill: #fff;
      }
    </style>
  </defs>
  <path class="fb-cls-1" d="M911.792,791A2.209,2.209,0,0,0,914,788.792V753.208A2.208,2.208,0,0,0,911.792,751H876.208A2.207,2.207,0,0,0,874,753.208v35.584A2.208,2.208,0,0,0,876.208,791h35.584Z" transform="translate(-874 -751)"/>
  <path class="fb-cls-2" d="M901.039,791V775.944h5.018l0.752-5.868h-5.77V766.33c0-1.7.469-2.857,2.888-2.857h3.085v-5.248a40.859,40.859,0,0,0-4.5-.231c-4.448,0-7.493,2.734-7.493,7.756v4.327h-5.031v5.868h5.031V791h6.016Z" transform="translate(-874 -751)"/>
</svg>
