<svg width="40.469" height="40" viewBox="0 0 40.469 40" xmlns="http://www.w3.org/2000/svg">
    <path id="Rounded_Rectangle_671"
          d="M942.8,751h36.48a2,2,0,0,1,2,2v36a2,2,0,0,1-2,2H942.8a2,2,0,0,1-2-2V753A2,2,0,0,1,942.8,751Z"
          transform="translate(-940.812 -751)" fill="#4b75a2"/>
    <path fill-rule="evenodd" clip-rule="evenodd"
          d="M14.1593 16.2412C14.2935 16.3362 14.4664 16.36 14.6206 16.3017C14.7747 16.2429 14.8881 16.1112 14.9222 15.9517C15.2843 14.25 16.1626 9.94306 16.4922 8.39517C16.5172 8.27851 16.4755 8.15726 16.3839 8.07935C16.2922 8.00143 16.1651 7.97893 16.0518 8.02102C14.3047 8.66767 8.92444 10.6864 6.72532 11.5001C6.58574 11.5518 6.49491 11.6859 6.49949 11.833C6.50449 11.9805 6.60366 12.1084 6.74657 12.1513C7.7328 12.4463 9.02735 12.8567 9.02735 12.8567C9.02735 12.8567 9.63234 14.6838 9.94775 15.6129C9.98733 15.7296 10.0786 15.8213 10.199 15.8529C10.319 15.8842 10.4473 15.8513 10.5369 15.7667C11.0436 15.2884 11.8269 14.5488 11.8269 14.5488C11.8269 14.5488 13.3152 15.64 14.1593 16.2412ZM9.57193 12.6259L10.2715 14.9334L10.4269 13.4721C10.4269 13.4721 13.1298 11.0343 14.6706 9.64473C14.7156 9.6039 14.7218 9.53557 14.6843 9.48765C14.6472 9.43973 14.5789 9.42848 14.5276 9.46098C12.7419 10.6014 9.57193 12.6259 9.57193 12.6259Z"
          fill="white" transform="scale(2) translate(-2 -2)"/>
</svg>
