<svg id="vk-icon" xmlns="http://www.w3.org/2000/svg" width="40.469" height="40" viewBox="0 0 40.469 40">
    <defs>
        <style>
            .vk-cls-1 {
            fill: #4b75a2;
            }

            .vk-cls-1, .vk-cls-2 {
            fill-rule: evenodd;
            }

            .vk-cls-2 {
            fill: #fff;
            }
        </style>
    </defs>
    <path id="Rounded_Rectangle_671" class="vk-cls-1"
          d="M942.8,751h36.48a2,2,0,0,1,2,2v36a2,2,0,0,1-2,2H942.8a2,2,0,0,1-2-2V753A2,2,0,0,1,942.8,751Z"
          transform="translate(-940.812 -751)"/>
    <path class="vk-cls-2"
          d="M960.721,779.8h1.554a1.312,1.312,0,0,0,.709-0.311,1.139,1.139,0,0,0,.214-0.684s-0.031-2.089.937-2.4,2.18,2.02,3.478,2.913a2.458,2.458,0,0,0,1.728.528l3.472-.049s1.817-.112.955-1.543a11.594,11.594,0,0,0-2.581-2.994c-2.178-2.025-1.886-1.7.737-5.2,1.6-2.133,2.235-3.436,2.036-3.993-0.19-.532-1.365-0.391-1.365-0.391l-3.91.024a0.88,0.88,0,0,0-.5.089,1.094,1.094,0,0,0-.345.42,22.742,22.742,0,0,1-1.444,3.055c-1.741,2.962-2.437,3.119-2.722,2.935-0.662-.429-0.5-1.722-0.5-2.641,0-2.871.434-4.068-.847-4.378A6.647,6.647,0,0,0,960.5,765a8.42,8.42,0,0,0-3.244.333c-0.445.218-.788,0.7-0.579,0.732a1.76,1.76,0,0,1,1.154.582,3.789,3.789,0,0,1,.386,1.772s0.231,3.38-.537,3.8c-0.527.288-1.25-.3-2.8-2.987a25.129,25.129,0,0,1-1.4-2.9,1.155,1.155,0,0,0-.322-0.437,1.62,1.62,0,0,0-.6-0.243l-3.715.025a1.263,1.263,0,0,0-.762.258,0.814,0.814,0,0,0-.015.663s2.909,6.819,6.2,10.256a8.91,8.91,0,0,0,6.449,2.944"
          transform="translate(-940.812 -751)"/>
</svg>
